<svg xmlns="http://www.w3.org/2000/svg" width="86" height="72" viewBox="0 0 86 72" xmlns:xlink="http://www.w3.org/1999/xlink">
  <defs>
    <path id="a" d="M0 31.1h85.933V0H0z"></path>
  </defs>
  <g fill="none" fill-rule="evenodd">
    <g transform="translate(0 17.24)">
      <path id="logo" fill="#7d97ad9a" d="M17.775 24.71h24.647c-.034.497-.506 1.857-.73 2.173H17.776V24.71zm0-20.592h23.96c.205.358.67 1.712.73 2.174h-24.69V4.118zm4.444 12.355h17.09c.553.377 1.59 1.617 2 2.174h-19.1v-2.174zm13.33 6.292h7.12c.016-.568-.214-1.737-.39-2.173h-6.73v2.173zM22.22 14.53h17.12c.557-.38 1.58-1.62 1.994-2.175H22.22v2.174zm13.33-6.293h7.1c0 .504-.195 1.737-.37 2.174h-6.73V8.24zm-17.775 20.59H40.06c-1.974 1.62-3.718 2.175-6.778 2.175H17.775v-2.174zm0-26.653H40.06C38.087.556 36.343 0 33.284 0h-15.51v2.174z"></path>
      <mask id="b" fill="#fff">
        <use xlink:href="#a"></use>
      </mask>
      <path id="logo" fill="#7d97ad9a" d="M0 2.174h15.553V0H0m0 6.292h15.553V4.118H0m0 22.765h15.553V24.71H0m4.444-1.944h6.666v-2.174H4.444m0-1.945h6.666v-2.174H4.444m0-1.943h6.666v-2.175H4.444m0-1.945h6.666V8.237H4.444m17.776 14.53h6.664V20.59H22.22m0-10.182h6.664v-2.17H22.22m36.91 14.527h6.167l.782-2.173h-7.73m-.71-1.945h9.132l.78-2.174h-10.69M0 31h15.553v-2.17H0m62.098 2.172h.232l.784-2.174h-1.8m-12.43-6.062h6.665v-2.174h-6.67m0-1.945h6.66v-2.174h-6.66M44.44 31h11.108v-2.17h-11.11m.002-1.947h11.108V24.71h-11.11m16.177 2.173h3.2l.78-2.173h-4.763m9.048-1.944h6.666v-2.174H68.88m0-1.945h6.666v-2.174H68.88m0 14.527h11.11v-2.17H68.88m0-1.947h11.11V24.71H68.88M59.997 8.237H48.882v2.174h11.912m2.13 1.95l-.71 1.95-.708-1.95H48.883v2.177h6.666V12.82l.61 1.712h12.1l.613-1.714v1.712h6.665v-2.173M56.98 0H44.44v2.174h13.336m.712 1.944h-14.05v2.174h14.847m5.145 1.945h11.116v2.174H63.634M67.45 0h12.54v2.174H66.653m-.713 1.944h14.05v2.174H65.142m18.985 22.983c.278 0 .685.045.685-.342 0-.296-.25-.332-.49-.332h-.56v.68h.365zm.92 1.06h-.287l-.56-.875h-.44v.876h-.24v-1.9h.856c.518 0 .695.187.695.502 0 .374-.26.512-.61.522l.597.876zm.597-.95c0-.83-.62-1.476-1.47-1.476-.856 0-1.48.64-1.48 1.47s.624 1.48 1.48 1.48c.85 0 1.47-.65 1.47-1.48zm-3.23 0c0-.936.788-1.7 1.76-1.7.967 0 1.748.764 1.748 1.7 0 .942-.78 1.706-1.75 1.706s-1.757-.76-1.757-1.7z" mask="url(#b)"></path>
    </g>
    <path d="M0 0h86v72H0z"></path>
  </g>
</svg>