<?xml version="1.0" encoding="UTF-8" standalone="no"?>
<svg
   xmlns:dc="http://purl.org/dc/elements/1.1/"
   xmlns:cc="http://creativecommons.org/ns#"
   xmlns:rdf="http://www.w3.org/1999/02/22-rdf-syntax-ns#"
   xmlns:svg="http://www.w3.org/2000/svg"
   xmlns="http://www.w3.org/2000/svg"
   viewBox="0 0 800 209.8"
   height="209.8"
   width="800"
   xml:space="preserve"
   id="svg2"
   version="1.1"><metadata
     id="metadata8"><rdf:RDF><cc:Work
         rdf:about=""><dc:format>image/svg+xml</dc:format><dc:type
           rdf:resource="http://purl.org/dc/dcmitype/StillImage" /></cc:Work></rdf:RDF></metadata><defs
     id="defs6" /><g
     transform="matrix(1.3333333,0,0,-1.3333333,0,209.8)"
     id="g10"><g
       transform="scale(0.1)"
       id="g12"><path
         id="path14"
         style="fill:#343434;fill-opacity:1;fill-rule:nonzero;stroke:none"
         d="m 1881.73,1310.41 c 30.06,0.23 60.11,0.23 90.39,0.23 0,-67.55 0,-135.1 0,-202.64 31.01,0 62.03,-0.25 93.04,-0.48 0,-24.04 0,-48.09 0.23,-72.13 -31.24,0.24 -62.5,0.24 -93.51,0.24 0.24,-69.962 0.24,-139.673 0.24,-209.376 31.01,9.84 62.26,19.934 93.51,29.555 1.21,-18.258 3.37,-54.555 4.58,-72.844 -32.7,-9.133 -65.4,-18.27 -98.09,-27.399 -3.85,-126.445 8.17,-253.617 -6.01,-379.355 -21.15,-75.012 -113.46,-62.02 -173.81,-73.789 -5.28,21.629 -16.1,64.66 -21.63,86.047 36.77,6 73.56,12.019 110.1,19.48 1.68,105.531 0.96,211.082 0.96,316.61 -38.22,-12.489 -76.45,-25.008 -114.66,-37.5 -2.41,25.246 -4.57,50.714 -6.98,75.949 40.38,11.551 81.02,22.847 121.88,33.902 -0.24,79.574 -0.24,159.145 -0.24,238.48 -37.98,0.24 -75.73,0 -113.7,0 -0.25,24.28 -0.25,48.32 -0.25,72.36 37.99,0 75.97,0.25 113.95,0.25 0,67.54 0,135.09 0,202.41 v 0" /><path
         id="path16"
         style="fill:#6b6c6e;fill-opacity:1;fill-rule:nonzero;stroke:none"
         d="m 4025.84,1310.16 c 30.06,0.25 60.11,0.48 90.16,0.48 0.23,-67.78 0.23,-135.57 0.23,-203.37 30.28,0.25 60.83,0.25 91.35,0.48 0,-18.27 0.25,-54.57 0.25,-72.61 -30.77,0.25 -61.32,0.74 -91.83,1.22 0.23,-69.727 0.23,-139.192 0,-208.911 31.01,9.371 61.79,18.739 93.03,27.883 0.97,-18.019 2.63,-54.336 3.6,-72.367 -32.22,-9.367 -64.43,-18.738 -96.63,-28.121 -3.85,-127.414 9.86,-255.785 -7.7,-382.223 -23.81,-73.34 -116.35,-57.941 -176.45,-69.23 -4.32,22.589 -12.98,68.007 -17.3,90.609 35.1,1.941 70.2,4.102 105.53,6.25 7.69,107.711 6.49,215.395 5.27,323.109 -40.6,-12.511 -81.48,-24.765 -122.36,-37.019 -22.83,87.984 62.03,93.738 122.62,112.492 0.23,78.859 0.23,157.707 0,236.558 -37.98,0 -75.73,0.24 -113.48,0.24 -0.24,24.04 -0.24,48.08 0,71.89 37.75,0.23 75.73,0.48 113.71,0.48 0,67.3 0,134.86 0,202.16 v 0" /><path
         id="path18"
         style="fill:#6b6c6e;fill-opacity:1;fill-rule:nonzero;stroke:none"
         d="m 5444.2,1312.09 c 24.51,0 73.32,0 97.85,0 -0.26,-31.98 -0.26,-64.18 0,-96.16 135.08,0 270.19,0 405.53,0 0,-16.11 0,-48.56 0,-64.66 -135.34,0 -270.69,-0.24 -406.03,0.23 0.24,-35.58 0.5,-71.16 0.97,-106.74 143.52,-0.23 286.79,0 430.32,-0.23 0,-61.061 0,-122.128 -0.26,-183.421 -21.39,0 -64.65,0 -86.06,0 -0.48,39.899 -0.48,79.805 -0.71,119.715 -106.98,-2.172 -214.43,7.453 -320.68,-4.086 -90.41,-42.07 -166.85,-108.664 -254.11,-156.496 78.59,5.285 158.41,0.703 236.54,13.219 54.82,18.266 102.41,51.922 152.41,80.289 24.78,-19.949 50.01,-39.906 75.01,-59.863 -159.14,-76.207 -318.77,-151.211 -480.8,-221.172 142.81,5.301 285.83,10.586 428.87,16.601 -30.29,26.2 -60.34,52.395 -90.15,78.36 16.36,12.019 49.04,35.832 65.4,47.613 82.7,-63.949 165.39,-127.66 245.92,-194.242 -23.08,-20.445 -45.92,-40.637 -68.76,-61.067 -22.35,19.7 -44.46,39.661 -66.57,59.61 -82.95,-1.203 -165.64,-2.625 -248.34,-4.082 -2.4,-73.559 8.66,-150.02 -13.71,-221.168 -59.14,-72.121 -167.55,-36.301 -248.81,-44.469 -5.76,19.949 -17.06,60.328 -22.6,80.289 58.16,2.149 117.57,0 174.78,13.219 14.67,54.812 10.56,112.25 12.49,168.269 -114.9,-3.347 -229.81,-7.929 -344.24,-19.457 -11.31,28.602 -22.37,56.981 -33.42,85.336 114.68,33.411 224.52,80.293 333.66,127.903 -82.92,-3.848 -166.09,-6.25 -249.03,-10.821 -9.4,24.508 -19,48.805 -28.39,73.075 100.98,31.98 190.42,88.707 272.37,154.82 -103.83,0.726 -207.69,0.48 -311.55,0.48 -0.23,-40.14 -0.47,-80.054 -0.7,-120.203 -29.58,0 -59.14,-0.23 -88.72,-0.476 0,60.816 0,121.64 0.23,182.225 143.77,0 287.77,0.23 431.76,0 -0.47,35.58 -0.47,71.15 -0.71,106.5 -135.1,0.24 -270.21,0 -405.32,0.24 0,16.1 0,48.55 0,64.66 135.11,0 270.45,0 405.56,0 0,32.22 0,64.18 0,96.16 v 0" /><path
         id="path20"
         style="fill:#343434;fill-opacity:1;fill-rule:nonzero;stroke:none"
         d="m 2851.73,1247.66 c 18.03,12.98 54.09,38.71 72.12,51.69 41.12,-50.25 80.31,-101.68 118.29,-154.1 32.45,41.36 64.91,82.46 97.35,123.81 23.58,-11.3 47.36,-22.83 71.4,-34.14 -42.54,-51.68 -85.81,-102.65 -130.3,-152.65 63.22,-182.711 72.61,-378.629 68.53,-570.219 -1.92,-64.422 -16.37,-143.281 -81.75,-172.86 -57.2,-21.882 -120.43,-12.492 -180.29,-15.621 -4.34,21.16 -12.74,63.231 -16.84,84.379 56.26,6.481 141.36,-22.84 172.87,42.301 31.48,100.012 10.08,207.727 13.68,311.098 -51.91,-67.801 -114.43,-126.473 -180.77,-180.071 -11.79,20.422 -23.8,40.871 -35.58,61.536 77.4,63.71 144.72,138.953 200.01,222.863 -11.06,46.383 -22.59,92.785 -34.86,138.944 -37.74,-30.288 -75.73,-60.339 -113.7,-90.151 -11.79,16.351 -35.34,49.285 -46.89,65.875 43.04,30.286 85.59,61.776 127.41,93.756 -38.7,58.9 -79.56,116.35 -120.68,173.56 v 0" /><path
         id="path22"
         style="fill:#f03d1f;fill-opacity:1;fill-rule:nonzero;stroke:none"
         d="M 363.855,1138.05 C 288.367,1059.92 302.313,917.352 391.016,854.613 536.223,737.539 730.215,720.703 890.328,633.68 953.551,606.75 927.348,521.648 865.09,515.898 672.289,479.109 483.324,563.719 317.457,653.164 c -2.164,-65.879 -3.359,-131.516 -3.605,-197.363 209.871,-92.082 443.543,-135.34 671.437,-100.012 75.961,14.902 154.331,40.621 210.831,96.152 81.25,78.86 73.08,230.547 -21.65,295.696 -149.76,121.883 -351.697,137.261 -513.966,233.902 -48.082,31.731 -8.652,91.841 40.391,93.751 178.136,31.74 352.665,-40.38 517.825,-98.798 3.36,58.418 6.24,116.828 8.89,175.248 -207.22,75.25 -430.321,123.32 -650.762,87.75 -76.688,-17.55 -156.977,-43.52 -212.993,-101.44 z m 72.356,240.63 C 204.707,1247.42 69.6055,968.805 108.066,705.566 c 31.743,-248.804 214.2,-470.214 452.442,-548.605 151.926,-54.551 320.207,-43.731 471.172,8.898 20.2,-28.121 40.16,-56.48 60.34,-84.5973 99.05,45.1873 188.47,108.4103 263.23,187.5003 -19.94,28.117 -39.89,56.019 -59.85,83.91 60.1,82.207 114.9,170.898 139.67,270.914 70.68,253.859 -26.44,542.104 -234.86,702.684 -212.28,171.89 -530.327,194.72 -763.999,52.41 z M 27.0508,996.199 c 84.1402,338.731 419.9802,591.381 769.2772,576.731 353.632,-0.25 681.532,-273.34 746.682,-620.711 51.93,-240.649 -24.76,-496.918 -185.1,-681.071 18.99,-28.828 37.98,-57.91 56.73,-87.019 C 1335.06,108.648 1246.84,41.1094 1144.19,0 1126.39,27.1719 1108.61,54.0898 1091.06,81.0195 870.137,-8.42969 610.02,-1.46094 401.113,117.309 95.332,280.281 -68.1445,662.527 27.0508,996.199 v 0" /><path
         id="path24"
         style="fill:#343434;fill-opacity:1;fill-rule:nonzero;stroke:none"
         d="m 3339.75,886.824 c -0.49,-90.148 -0.49,-180.066 -0.24,-270.215 60.1,0 119.94,0 180.04,0 -0.23,90.149 -0.23,180.301 0,270.45 -59.84,-0.235 -119.94,-0.235 -179.8,-0.235 z m 3.61,424.306 c 29.79,-5.77 59.84,-11.29 89.67,-17.07 -16.6,-39.18 -32.95,-78.37 -49.51,-117.56 148.55,0.25 297.11,0 445.92,0 -5.77,-228.613 -7.47,-457.488 -18.52,-685.871 -0.47,-66.098 -32.68,-140.117 -102.87,-155.988 -83.44,-18.532 -169.97,-12.02 -254.6,-14.911 -4.8,29.321 -9.6,58.899 -14.43,88.219 71.66,0 144.25,-9.129 215.41,2.891 44.46,12.98 61.55,61.769 62.25,103.601 11.33,196.407 12.03,393.301 14.44,589.939 -127.43,0 -255.07,-0.47 -382.7,0.48 -30.31,-52.4 -61.08,-104.81 -92.58,-156.493 116.35,0.235 232.96,0.235 349.55,0 0,-135.355 0,-270.457 0,-405.797 -118.75,0 -237.52,0 -356.29,0 0,121.883 0,243.778 -0.23,365.407 -33.17,18.277 -65.61,37.5 -97.83,57.222 79.8,105.771 144.48,222.361 192.32,345.931 v 0" /><path
         id="path26"
         style="fill:#343434;fill-opacity:1;fill-rule:nonzero;stroke:none"
         d="m 2266.13,638.016 c 108.9,1.203 217.8,1.203 326.94,0.238 -52.89,-53.125 -109.62,-102.402 -169.72,-146.883 -56.25,44.707 -108.9,93.758 -157.22,146.645 z m 252.41,-183.664 c 78.86,67.296 196.17,127.894 189.2,248.089 -78.86,1.692 -157.7,1.2 -236.55,0.965 -0.24,32.207 -0.48,64.184 -0.48,95.918 87.01,0 174.29,0 261.31,0.235 0,147.847 0,295.691 0,443.531 -73.56,0 -147.12,0 -220.45,-0.23 0,-15.4 0,-46.16 0,-61.55 43.51,0 87.26,-0.23 131.02,-0.23 -0.24,-39.2 -0.24,-78.62 -0.24,-117.81 -39.66,-0.23 -79.09,-0.48 -118.51,-0.71 -0.25,-15.14 -0.73,-44.96 -0.96,-60.1 40.14,0 80.05,-0.25 120.2,-0.48 -0.97,-45.441 -1.93,-90.867 -3.13,-136.304 -56.74,0.23 -113.47,0.23 -170.45,0.476 0,148.078 -0.48,296.418 0.73,444.738 -31.49,0 -62.99,0 -94.23,-0.25 0.46,-148.07 -0.25,-296.41 -1.69,-444.488 -57.22,-0.246 -114.43,-0.246 -171.4,-0.476 0.23,45.672 0.47,91.105 0.96,136.534 42.3,0 84.37,0.25 126.69,0.25 0.23,15.14 0.96,44.96 1.19,59.85 -42.3,0.25 -84.62,0.48 -126.92,0.73 -0.96,38.7 -1.69,77.4 -2.17,116.11 43.99,11.78 87.75,23.56 131.73,35.33 -8.4,14.68 -24.75,44 -33.17,58.66 -61.78,-18.51 -124.03,-35.58 -186.54,-51.2 -0.25,-140.87 -0.25,-281.741 -0.25,-422.616 87.28,0 174.54,0 261.57,0 0,-31.734 0,-63.476 0,-95.445 -88.48,-0.473 -176.7,-0.238 -264.94,-0.238 -0.46,-15.879 -1.43,-47.118 -1.68,-62.754 11.54,-0.938 35.1,-3.125 46.64,-4.09 52.16,-65.848 110.59,-126.668 173.81,-181.969 -100,-25.957 -200.25,-50.726 -301.46,-71.648 11.07,-20.18 32.93,-60.559 43.76,-80.758 119.72,22.59 237.51,54.558 350.25,100.719 106.74,-42.301 218.29,-71.161 331.03,-92.539 13.23,28.347 26.45,56.968 39.67,85.339 -92.55,13.7 -184.14,33.887 -274.54,58.411" /><path
         id="path28"
         style="fill:#6b6c6e;fill-opacity:1;fill-rule:nonzero;stroke:none"
         d="m 4410.49,637.297 c 48.54,-52.168 100.7,-100.977 155.29,-146.899 59.61,45.204 116.11,94.239 169.01,147.129 -108.19,1.926 -216.13,2.161 -324.3,-0.23 z m 108.17,673.343 c 31.49,0 63.22,-0.23 94.71,-0.23 0.26,-148.09 0,-296.18 0.26,-444.258 56.98,-0.246 113.93,-0.246 171.16,-0.476 -0.26,45.672 -0.26,91.344 0,137.014 -38.95,-0.23 -77.66,-0.23 -116.37,-0.23 -0.47,14.9 -1.43,44.96 -1.66,60.1 39.18,0 78.59,0 118.03,0 -0.26,39.66 -0.26,79.09 -0.26,118.75 -43.73,0 -87.26,0 -130.53,0.24 0,20.43 -0.23,40.87 0,61.31 73.56,0 147.13,0 220.94,-0.25 0.24,-147.59 0,-295.204 0,-443.051 -87.28,0 -174.78,0 -262.04,0 0.23,-31.969 0.47,-63.946 0.97,-95.918 77.16,0 154.32,0 231.73,0 0.73,-19.461 2.15,-58.418 2.88,-77.899 -55.04,-64.652 -119.23,-120.191 -186.55,-171.633 90.63,-24.039 182,-43.757 274.31,-58.668 -13.48,-28.132 -26.92,-56.492 -40.15,-84.609 -112.52,20.918 -223.59,50.238 -330.31,92.066 -112.99,-45.679 -230.77,-77.386 -350.04,-100.968 -14.65,27.16 -29.08,54.582 -43.26,81.75 100.24,20.191 199.79,44.949 298.83,70.672 -73.09,65.398 -130.78,149.046 -216.36,199.781 -0.73,12.246 -1.92,37.019 -2.65,49.273 88.95,0.235 177.64,0.235 266.36,0 0,32.207 0,64.184 0,96.153 -87.25,0 -174.28,0 -261.32,0 0,140.64 -0.23,281.261 0.24,421.901 62.52,16.35 125.02,33.17 187.27,50.97 7.94,-14.67 24.04,-43.75 32.22,-58.43 -43.27,-11.54 -86.31,-22.83 -129.1,-34.13 0,-38.95 0,-77.88 0.25,-117.08 41.82,0 83.66,-0.23 125.49,-0.23 0,-15.14 0,-45.2 0,-60.1 -41.83,0 -83.91,-0.25 -125.74,-0.25 0,-45.429 0,-90.862 0.25,-136.058 56.72,-0.246 113.46,-0.246 170.44,0 0.24,148.078 0,296.418 0,444.488 v 0" /><path
         id="path30"
         style="fill:#6b6c6e;fill-opacity:1;fill-rule:nonzero;stroke:none"
         d="m 4988.16,390.391 c 103.85,42.57 204.82,91.847 301.7,148.82 12.76,-14.18 38.46,-42.563 51.2,-56.742 -102.9,-55.289 -208.19,-106.489 -314.2,-156.008 -12.98,21.391 -25.71,42.777 -38.7,63.93 v 0" /><path
         id="path32"
         style="fill:#6b6c6e;fill-opacity:1;fill-rule:nonzero;stroke:none"
         d="m 5702.63,530.801 c 98.55,-46.871 197.59,-93.039 297.37,-137.52 -17.79,-22.351 -35.59,-44.461 -53.12,-66.582 -100.25,47.59 -200.49,94.711 -297.88,147.602 17.8,18.758 35.59,37.75 53.63,56.5 v 0" /></g></g></svg>